<?xml version="1.0" encoding="UTF-8"?><svg id="Layer_2" xmlns="http://www.w3.org/2000/svg" viewBox="0 0 769 769"><defs><style>.cls-1{fill:#fff3dc;}.cls-2{fill:none;stroke:#fff3dc;stroke-miterlimit:10;}</style></defs><g id="Layer_4"><path class="cls-2" d="M717.17,576.56c-66.36,114.77-190.4,191.94-332.67,191.94s-266.31-77.17-332.67-191.94C19.18,520.07.5,454.48.5,384.5s18.68-135.57,51.33-192.06C118.19,77.67,242.24.5,384.5.5s266.31,77.17,332.67,191.94c32.66,56.49,51.33,122.08,51.33,192.06s-18.68,135.57-51.33,192.06Z"/><path class="cls-1" d="M492.79,447.02c-21.6,37.36-61.98,62.48-108.29,62.48s-86.69-25.12-108.29-62.48c-10.63-18.39-16.71-39.74-16.71-62.52s6.08-44.13,16.71-62.52c21.6-37.36,61.98-62.48,108.29-62.48s86.69,25.12,108.29,62.48c10.63,18.39,16.71,39.74,16.71,62.52s-6.08,44.13-16.71,62.52Z"/><path d="M358.9,397.05c-7.03,4.64-13.76,9.42-20.79,14.06-4.04,2.84-7.78,5.09-11.82,7.63-1.65,1.05-3.29,1.94-5.53,1.35-1.94-1.05-3.74-2.54-3.14-4.79,1.2-4.34,2.99-8.53,4.64-12.72,4.19-9.72,8.38-19.45,12.72-29.02,4.04-9.57,13.61-28.27,17.95-37.84.45-1.2.9-2.39,2.24-2.99.45.15,2.09.15,2.54.3.45.45.3.75.75.9-.15.45,0,.75-.15.9-1.8,4.04-3.59,7.78-5.39,11.52-4.79,10.77-14.21,30.82-19,41.59l-9.57,22.74c-.6,1.35-1.05,2.84-1.5,4.19-.15.6,0,.9,0,1.94,2.24-1.2,3.89-2.09,5.53-3.29,6.73-4.64,13.46-8.98,20.19-13.61,4.04-2.54,7.78-4.94,11.82-7.33,1.2-.75,7.18-4.34,8.53-4.79.75-.45,1.65-.15,2.39-.15.6.15.9.75,1.05,1.94-2.99.75-11.07,5.83-13.46,7.48Z"/><path d="M374.46,386.58c-1.05,2.24-2.09,3.89-2.69,6.13-.75,1.95-1.05,3.89-1.2,5.53-.3,1.05,0,2.09.9,3.14,1.35.6,1.5.3,2.69-.3,1.94-1.05,3.59-1.95,5.24-2.99,4.79-3.44,9.42-6.88,14.36-10.62.6-.15,1.05.15,1.35.9.15,1.35-.6,1.95-1.2,2.54-4.64,4.19-9.57,7.93-14.81,11.37-1.65,1.05-3.29,1.5-5.09,2.24-1.35.45-2.69.45-4.04-.15-1.65-.6-2.84-1.64-3.44-3.44-.15-.6-.15-1.35-.6-1.8-.15-4.94,1.65-9.12,3.59-13.16.45-.9.9-1.65,1.65-2.24.45-.45,1.05-.3,1.65-.45,1.05,1.64,2.09,2.24,1.65,3.29ZM374.91,374.31c.75-1.95,1.65-3.89,3.29-5.24,1.65-1.65,3.14-2.99,5.39-3.44.75.45,1.94,1.5,1.8,2.54-1.05,1.65-3.14,2.09-4.49,3.74-1.35,1.35-2.69,2.54-4.34,3.89-.6.15-1.2-.45-1.65-1.5Z"/><path d="M397.2,393.9c1.35,5.98.75,11.52-.45,17.05-1.2,7.63-3.44,14.51-6.43,21.24l-1.2,2.54-1.35,1.35c-.45.15-1.2.15-2.24.15l-2.24-1.79c0-.6-.15-.9-.15-1.35-.45-3.74.3-7.33.9-10.92,1.65-8.23,3.59-15.86,5.98-23.64,1.05-2.99,1.5-5.83,2.54-8.82l1.5-4.04c2.24-7.33,4.79-14.21,7.63-20.94.6-1.2,1.2-2.54,1.94-3.74.45-.75,1.2-1.05,1.8-1.65,1.05.6,1.5.9,1.94,1.35.75,2.24.15,3.44-.9,4.79-.45,1.05-1.2,1.35-1.35,2.39l-7.03,19.45c0,.45.15.75.15,1.35,6.88,1.5,13.31-.45,20.34-1.2l1.5,1.5c.3.75.15,1.35-.6,1.5-1.65.45-3.29.45-5.09.9-4.94,1.05-9.87,2.69-15.11,1.35-.75-.15-1.35-.3-2.09.15-.15.45-.15.75,0,1.05ZM388.52,426.07c3.29-7.33,5.68-18.1,5.68-24.68-2.24,5.24-3.14,10.02-4.49,14.96-.75,2.99-1.65,5.98-1.5,9.42l.3.3Z"/><path d="M426.82,378.35c1.05-.6,2.54-.9,3.74-1.35,1.35-.3,2.54,0,3.59.75,1.94,1.2,2.39,2.84,1.35,4.94-.6,1.35-1.5,2.09-2.54,3.14-2.99,2.24-6.28,3.89-9.87,5.09-.45,0-.75.3-1.2.45-8.97,20.94,17.65,5.24,26.03-3.14,1.65-1.05,1.94-.9,3.59.75-.45.6-.6,1.5-1.2,1.95-9.27,6.43-15.86,14.51-27.52,14.51-9.72-.75-7.63-9.12-5.24-15.86,1.8-4.94,4.94-8.68,9.27-11.22ZM425.47,384.78c-.45.45-1.05.9-.45,1.94,2.24-.9,4.49-2.24,6.43-4.04.6-.6,1.35-1.05.9-2.39-2.99.6-5.09,2.24-6.88,4.49Z"/></g></svg>