<?xml version="1.0" encoding="UTF-8"?><svg id="Layer_2" xmlns="http://www.w3.org/2000/svg" viewBox="0 0 769 769"><defs><style>.cls-1{fill:#fff3dc;}.cls-2{fill:none;stroke:#fff3dc;stroke-miterlimit:10;}</style></defs><g id="Layer_4"><path class="cls-2" d="M717.17,576.56c-66.36,114.77-190.4,191.94-332.67,191.94s-266.31-77.17-332.67-191.94C19.18,520.07.5,454.48.5,384.5s18.68-135.57,51.33-192.06C118.19,77.67,242.24.5,384.5.5s266.31,77.17,332.67,191.94c32.66,56.49,51.33,122.08,51.33,192.06s-18.68,135.57-51.33,192.06Z"/><path class="cls-1" d="M492.79,447.02c-21.6,37.36-61.98,62.48-108.29,62.48s-86.69-25.12-108.29-62.48c-10.63-18.39-16.71-39.74-16.71-62.52s6.08-44.13,16.71-62.52c21.6-37.36,61.98-62.48,108.29-62.48s86.69,25.12,108.29,62.48c10.63,18.39,16.71,39.74,16.71,62.52s-6.08,44.13-16.71,62.52Z"/><path d="M351.51,413.09v.93h-7.54v5.11h5.04v.93h-5.04v6.4h7.54v.93h-9.94v-14.29h9.94Z"/><path d="M355.9,416.14h.62v2.29c.28-.3.6-.59.95-.87s.71-.52,1.09-.73.75-.38,1.12-.5.73-.18,1.07-.18.65.06.99.17.64.28.93.49c.28.21.53.45.73.74s.34.59.4.93c.18-.32.43-.63.75-.91s.67-.53,1.06-.74c.39-.21.8-.37,1.23-.5.44-.12.86-.18,1.28-.18s.81.09,1.17.28c.36.18.68.43.95.74.27.31.49.68.65,1.1.16.42.24.87.24,1.34v7.78h-2.19v-7.48c0-.31-.05-.6-.16-.88-.11-.28-.25-.52-.43-.73-.18-.21-.39-.37-.63-.5-.24-.12-.49-.18-.76-.18-.3,0-.61.04-.92.12-.31.08-.61.2-.89.34-.28.14-.54.31-.77.5s-.41.39-.55.61v8.19h-2.19v-7.48c0-.31-.05-.6-.16-.88-.11-.28-.25-.52-.43-.73-.18-.21-.39-.37-.64-.5-.24-.12-.5-.18-.76-.18-.28,0-.57.04-.87.13s-.59.2-.87.34c-.28.14-.55.31-.79.5-.24.19-.45.39-.6.6v8.19h-2.2v-10.63l1.57-.62Z"/><path d="M380.11,427.62c-.85,0-1.63-.15-2.34-.44-.71-.29-1.33-.7-1.84-1.2-.52-.51-.92-1.1-1.21-1.78s-.44-1.41-.44-2.18.15-1.58.44-2.29.7-1.34,1.21-1.87c.52-.53,1.13-.95,1.84-1.26.71-.3,1.49-.46,2.34-.46s1.62.14,2.32.42c.71.28,1.32.67,1.84,1.15.52.49.92,1.06,1.21,1.72.29.66.44,1.36.44,2.12,0,.83-.15,1.62-.44,2.36s-.7,1.38-1.21,1.93-1.13.98-1.84,1.3c-.71.32-1.48.48-2.32.48ZM380.53,426.81c.43,0,.83-.11,1.19-.33s.67-.52.93-.9.46-.81.6-1.31c.14-.5.21-1.02.21-1.57,0-.8-.07-1.54-.21-2.24s-.36-1.3-.67-1.82-.71-.92-1.21-1.22c-.5-.3-1.1-.45-1.81-.45-.37,0-.72.11-1.07.32-.34.21-.65.5-.91.87-.26.37-.47.8-.63,1.29s-.24,1.01-.24,1.57c0,.8.08,1.56.25,2.26s.42,1.32.74,1.84c.33.52.73.94,1.2,1.25s1.01.46,1.61.46Z"/><path d="M391.35,412.59h.63v3.75h2.46v.94h-2.46v7.77c0,.17.03.32.09.46.06.14.14.27.25.38.11.11.23.19.37.25.14.06.3.09.47.09.24,0,.47-.06.67-.18s.38-.27.53-.45l.55.37c-.3.51-.69.91-1.18,1.21-.48.29-1.08.44-1.79.44-.37,0-.69-.06-.96-.19-.27-.13-.5-.3-.67-.53s-.31-.5-.39-.81c-.09-.31-.13-.66-.13-1.04v-7.77h-1.92v-.41l1.92-.53v-3.14l1.56-.62Z"/><path d="M397.8,412.12c0-.17.03-.33.1-.49s.15-.28.27-.4c.12-.12.25-.21.4-.27.15-.07.31-.1.49-.1s.33.03.48.1c.15.06.28.15.4.27.12.11.21.25.27.4s.1.31.1.49-.03.33-.1.48c-.06.15-.15.28-.27.4s-.25.21-.4.27-.31.1-.48.1-.34-.03-.49-.1-.28-.15-.4-.27-.21-.25-.27-.4c-.06-.15-.1-.31-.1-.48ZM397.97,416.76l1.54-.63h.64v11.24h-2.18v-10.62Z"/><path d="M409.27,427.62c-.85,0-1.63-.15-2.34-.44-.71-.29-1.33-.7-1.84-1.2-.52-.51-.92-1.1-1.21-1.78s-.44-1.41-.44-2.18.14-1.58.44-2.29.7-1.34,1.21-1.87c.52-.53,1.13-.95,1.84-1.26.71-.3,1.49-.46,2.34-.46s1.62.14,2.32.42c.71.28,1.32.67,1.84,1.15.52.49.92,1.06,1.21,1.72.29.66.44,1.36.44,2.12,0,.83-.15,1.62-.44,2.36s-.7,1.38-1.21,1.93c-.52.55-1.13.98-1.84,1.3-.71.32-1.48.48-2.32.48ZM409.69,426.81c.43,0,.83-.11,1.19-.33s.67-.52.93-.9c.26-.38.46-.81.6-1.31.14-.5.22-1.02.22-1.57,0-.8-.07-1.54-.21-2.24s-.36-1.3-.67-1.82c-.31-.52-.71-.92-1.21-1.22-.5-.3-1.1-.45-1.81-.45-.37,0-.72.11-1.07.32-.35.21-.65.5-.91.87-.26.37-.47.8-.63,1.29s-.24,1.01-.24,1.57c0,.8.08,1.56.25,2.26.17.7.42,1.32.74,1.84.33.52.73.94,1.2,1.25s1.01.46,1.61.46Z"/><path d="M419.77,416.14h.62v2.23c.67-.75,1.36-1.31,2.08-1.68s1.45-.56,2.19-.56c.39,0,.75.09,1.08.26.33.17.63.41.88.71s.45.66.59,1.06c.14.41.21.84.21,1.3v7.91h-2.19v-7.54c0-.37-.04-.69-.13-.96-.09-.28-.21-.51-.37-.7-.16-.19-.34-.33-.56-.43-.21-.1-.45-.15-.71-.15-.23,0-.47.04-.73.12-.26.08-.52.19-.79.33-.27.14-.54.31-.8.5-.27.19-.52.41-.77.65v8.17h-2.2v-10.63l1.57-.62Z"/><path d="M341.35,431.66l1.55-.61h.65v7.71c.18-.31.42-.6.71-.88s.61-.52.95-.73c.34-.21.7-.37,1.07-.49.37-.12.72-.18,1.06-.18.64,0,1.23.13,1.77.39s1,.61,1.39,1.06c.39.45.69.96.91,1.56s.33,1.23.33,1.9c0,.91-.16,1.77-.48,2.57-.32.8-.76,1.49-1.32,2.09-.56.59-1.21,1.06-1.96,1.41s-1.55.52-2.39.52-1.59-.11-2.31-.32c-.72-.22-1.36-.54-1.92-.98v-14.98ZM343.55,445.91c.14.13.29.26.45.4s.34.26.54.37.43.2.67.27.53.1.83.1c.51,0,.97-.12,1.39-.37s.77-.59,1.07-1.04c.3-.44.53-.97.69-1.57.16-.61.24-1.27.24-1.99,0-.55-.08-1.06-.25-1.54-.17-.48-.4-.9-.69-1.25s-.63-.64-1.02-.84c-.39-.21-.81-.31-1.26-.31-.25,0-.51.04-.77.11-.26.07-.51.17-.75.29s-.46.26-.66.43c-.2.16-.37.34-.5.52v6.41Z"/><path d="M354.36,450.32c.09.04.18.08.29.14.11.06.22.11.35.17.12.05.26.1.42.13s.32.05.51.05c.23,0,.45-.06.65-.19.2-.13.38-.29.55-.49.17-.19.31-.41.44-.64.13-.23.24-.45.32-.65l.74-1.66-5.64-10.52h2.49l4.25,7.98,3.48-7.98h1.18l-5.64,12.98c-.24.54-.51,1.01-.81,1.4-.3.4-.63.72-.97.98-.35.26-.7.45-1.07.58-.37.13-.72.19-1.07.19-.26,0-.51-.04-.75-.12s-.45-.18-.61-.31l.92-2.05Z"/><path d="M375.73,447.14c.35,0,.7-.05,1.04-.15.35-.1.65-.24.93-.43.27-.19.49-.42.66-.7s.25-.6.25-.96c0-.44-.11-.83-.34-1.17-.23-.34-.52-.65-.89-.94-.37-.28-.79-.55-1.26-.8-.47-.25-.95-.5-1.44-.75-.49-.25-.97-.52-1.44-.79-.47-.28-.89-.59-1.26-.93-.37-.34-.66-.72-.89-1.14-.23-.42-.34-.9-.34-1.45s.1-1.05.31-1.52c.21-.47.5-.87.9-1.21.4-.34.88-.61,1.46-.8.58-.19,1.24-.29,1.99-.29.67,0,1.28.07,1.81.22.53.14,1,.36,1.4.64.4.28.74.62,1.02,1.04.28.41.51.88.68,1.42l-1.23.56c-.14-.44-.33-.84-.55-1.2-.22-.36-.49-.67-.8-.93-.31-.26-.67-.46-1.07-.6-.41-.14-.86-.21-1.37-.21-.45,0-.85.06-1.19.19-.34.12-.62.29-.85.5-.23.21-.39.44-.51.69-.11.25-.17.52-.17.78,0,.37.12.72.35,1.03.23.31.54.61.92.88.38.28.81.54,1.3.8.48.26.98.52,1.48.79.5.27,1,.54,1.48.83.48.29.92.6,1.3.94.38.34.69.71.92,1.12s.35.86.35,1.36c0,.57-.11,1.1-.32,1.6-.21.5-.54.93-.97,1.3-.43.37-.97.66-1.61.88s-1.38.32-2.23.32c-.69,0-1.3-.08-1.84-.23-.54-.15-1.01-.37-1.43-.66-.41-.29-.77-.64-1.06-1.05-.29-.41-.54-.89-.72-1.42l1.28-.53c.15.47.35.88.61,1.25.25.37.55.68.89.93.34.25.71.45,1.13.59s.85.21,1.32.21Z"/><path d="M391.27,439.77c-.08-.29-.19-.58-.32-.87s-.31-.56-.52-.8c-.21-.24-.46-.44-.75-.59-.29-.15-.62-.23-1.01-.23-.5,0-.94.1-1.34.3-.4.2-.73.47-1,.82-.27.35-.48.75-.62,1.21-.14.46-.21.95-.21,1.47,0,.7.09,1.37.28,2s.44,1.18.78,1.65c.33.47.74.85,1.21,1.13s1,.42,1.58.42c.51,0,.95-.08,1.33-.24.38-.16.7-.38.98-.65.28-.27.52-.59.72-.95.2-.36.38-.75.54-1.15l.66.27c-.19.69-.44,1.31-.76,1.85-.32.55-.69,1.01-1.12,1.38-.43.38-.91.67-1.45.86-.54.2-1.12.3-1.74.3-.73,0-1.41-.14-2.04-.43-.63-.28-1.18-.67-1.65-1.17s-.84-1.07-1.11-1.74c-.27-.66-.41-1.37-.41-2.12,0-.55.07-1.09.21-1.6s.33-.99.58-1.44.55-.85.89-1.22c.35-.37.74-.68,1.16-.94.42-.26.88-.47,1.36-.61.48-.14.99-.22,1.51-.22.44,0,.86.05,1.26.15s.77.24,1.11.43c.34.18.63.41.89.68.26.27.46.57.6.9l-1.6,1.15Z"/><path d="M401.32,447.95c-.75,0-1.45-.14-2.11-.42s-1.23-.66-1.72-1.14-.88-1.05-1.16-1.7c-.28-.65-.43-1.34-.43-2.08,0-.88.13-1.7.39-2.45.26-.75.62-1.4,1.1-1.95.47-.55,1.04-.97,1.71-1.28s1.41-.46,2.23-.46c.72,0,1.38.13,1.98.38s1.12.6,1.56,1.02c.43.43.77.92,1.01,1.48.24.56.36,1.15.36,1.76h-8.23c0,.74.1,1.43.29,2.06.19.63.46,1.18.8,1.64.34.46.75.82,1.23,1.08s1,.39,1.56.39c.47,0,.93-.08,1.37-.23.44-.15.84-.36,1.19-.61.36-.25.66-.54.91-.86.25-.32.43-.66.53-1l.64.28c-.16.57-.41,1.1-.77,1.6-.35.5-.76.93-1.23,1.3s-.98.66-1.54.88c-.55.21-1.11.32-1.68.32ZM403.49,440.23c0-.42-.07-.8-.22-1.16s-.35-.67-.61-.93c-.26-.26-.56-.47-.9-.62-.35-.15-.72-.23-1.11-.23-.33,0-.65.07-.95.22-.3.15-.57.35-.81.61-.24.26-.43.57-.59.93-.16.36-.25.75-.28,1.16h5.46Z"/><path d="M411.23,436.46h.62v2.23c.67-.75,1.36-1.31,2.08-1.68s1.45-.56,2.19-.56c.39,0,.75.09,1.08.26.33.17.63.41.88.71s.45.66.59,1.06c.14.41.21.84.21,1.3v7.91h-2.19v-7.54c0-.37-.04-.69-.13-.96-.09-.28-.21-.51-.37-.7-.16-.19-.34-.33-.56-.43-.21-.1-.45-.15-.71-.15-.23,0-.47.04-.73.12-.26.08-.52.19-.79.33-.27.14-.54.31-.8.5-.27.19-.52.41-.77.65v8.17h-2.2v-10.63l1.57-.62Z"/><path d="M425.09,432.92h.63v3.75h2.46v.94h-2.46v7.77c0,.17.03.32.09.46.06.14.14.27.25.38.11.11.23.19.37.25.14.06.3.09.47.09.24,0,.47-.06.67-.18s.38-.27.53-.45l.55.37c-.3.51-.69.91-1.18,1.21-.48.29-1.08.44-1.79.44-.37,0-.69-.06-.96-.19-.27-.13-.5-.3-.67-.53s-.31-.5-.39-.81c-.09-.31-.13-.66-.13-1.04v-7.77h-1.92v-.41l1.92-.53v-3.14l1.56-.62Z"/><path d="M362.74,371.42c-5.98,3.94-11.7,8.01-17.68,11.95-3.43,2.42-6.61,4.32-10.05,6.49-1.4.89-2.8,1.65-4.7,1.14-1.65-.89-3.18-2.16-2.67-4.07,1.02-3.69,2.54-7.25,3.94-10.81,3.56-8.27,7.12-16.53,10.81-24.67,3.43-8.14,11.57-24.03,15.26-32.17.38-1.02.76-2.03,1.91-2.54.38.13,1.78.13,2.16.25.38.38.25.64.64.76-.13.38,0,.64-.13.76-1.53,3.43-3.05,6.61-4.58,9.79-4.07,9.16-12.08,26.2-16.15,35.35l-8.14,19.33c-.51,1.14-.89,2.42-1.27,3.56-.13.51,0,.76,0,1.65,1.91-1.02,3.31-1.78,4.7-2.8,5.72-3.94,11.44-7.63,17.17-11.57,3.43-2.16,6.61-4.2,10.05-6.23,1.02-.64,6.1-3.69,7.25-4.07.64-.38,1.4-.13,2.03-.13.51.13.76.64.89,1.65-2.54.64-9.41,4.96-11.44,6.36Z"/><path d="M375.97,362.52c-.89,1.91-1.78,3.31-2.29,5.21-.64,1.65-.89,3.31-1.02,4.7-.25.89,0,1.78.76,2.67,1.14.51,1.27.25,2.29-.25,1.65-.89,3.05-1.65,4.45-2.54,4.07-2.92,8.01-5.85,12.21-9.03.51-.13.89.13,1.14.76.13,1.14-.51,1.65-1.02,2.16-3.94,3.56-8.14,6.74-12.59,9.66-1.4.89-2.8,1.27-4.32,1.91-1.14.38-2.29.38-3.43-.13-1.4-.51-2.42-1.4-2.92-2.92-.13-.51-.13-1.14-.51-1.53-.13-4.2,1.4-7.76,3.05-11.19.38-.76.76-1.4,1.4-1.91.38-.38.89-.25,1.4-.38.89,1.4,1.78,1.91,1.4,2.8ZM376.35,352.1c.64-1.65,1.4-3.31,2.8-4.45,1.4-1.4,2.67-2.54,4.58-2.92.64.38,1.65,1.27,1.53,2.16-.89,1.4-2.67,1.78-3.81,3.18-1.14,1.14-2.29,2.16-3.69,3.31-.51.13-1.02-.38-1.4-1.27Z"/><path d="M395.3,368.75c1.14,5.09.64,9.79-.38,14.5-1.02,6.49-2.92,12.33-5.47,18.06l-1.02,2.16-1.14,1.14c-.38.13-1.02.13-1.91.13l-1.91-1.53c0-.51-.13-.76-.13-1.14-.38-3.18.25-6.23.76-9.28,1.4-6.99,3.05-13.48,5.09-20.09.89-2.54,1.27-4.96,2.16-7.5l1.27-3.43c1.91-6.23,4.07-12.08,6.49-17.8.51-1.02,1.02-2.16,1.65-3.18.38-.64,1.02-.89,1.53-1.4.89.51,1.27.76,1.65,1.14.64,1.91.13,2.92-.76,4.07-.38.89-1.02,1.14-1.14,2.03l-5.98,16.53c0,.38.13.64.13,1.14,5.85,1.27,11.32-.38,17.29-1.02l1.27,1.27c.25.64.13,1.14-.51,1.27-1.4.38-2.8.38-4.32.76-4.2.89-8.39,2.29-12.84,1.14-.64-.13-1.14-.25-1.78.13-.13.38-.13.64,0,.89ZM387.92,396.09c2.8-6.23,4.83-15.39,4.83-20.98-1.91,4.45-2.67,8.52-3.81,12.72-.64,2.54-1.4,5.09-1.27,8.01l.25.25Z"/><path d="M420.47,355.53c.89-.51,2.16-.76,3.18-1.14,1.14-.25,2.16,0,3.05.64,1.65,1.02,2.03,2.42,1.14,4.2-.51,1.14-1.27,1.78-2.16,2.67-2.54,1.91-5.34,3.31-8.39,4.32-.38,0-.64.25-1.02.38-7.63,17.8,15.01,4.45,22.13-2.67,1.4-.89,1.65-.76,3.05.64-.38.51-.51,1.27-1.02,1.65-7.88,5.47-13.48,12.33-23.4,12.33-8.27-.64-6.49-7.76-4.45-13.48,1.53-4.2,4.2-7.38,7.88-9.54ZM419.33,361c-.38.38-.89.76-.38,1.65,1.91-.76,3.81-1.91,5.47-3.43.51-.51,1.14-.89.76-2.03-2.54.51-4.32,1.91-5.85,3.82Z"/></g></svg>